<?xml version="1.0" standalone="no"?>
<!DOCTYPE svg PUBLIC "-//W3C//DTD SVG 20010904//EN"
 "http://www.w3.org/TR/2001/REC-SVG-20010904/DTD/svg10.dtd">
<svg version="1.0" xmlns="http://www.w3.org/2000/svg"
 width="230.000000pt" height="230.000000pt" viewBox="0 0 230.000000 230.000000"
 preserveAspectRatio="xMidYMid meet">
<metadata>
Created by potrace 1.14, written by Peter Selinger 2001-2017
</metadata>
<g transform="translate(0.000000,230.000000) scale(0.100000,-0.100000)"
fill="#000000" stroke="none">
<path d="M613 2270 c-70 -35 -121 -89 -154 -165 -26 -60 -22 -107 19 -232 29
-85 42 -115 141 -328 l46 -100 -2 -107 c-2 -111 -21 -216 -49 -271 -9 -18 -36
-62 -60 -98 -63 -95 -116 -213 -122 -268 l-4 -47 73 -68 c90 -84 157 -134 229
-173 67 -36 181 -80 232 -89 l38 -6 -51 -57 c-66 -73 -103 -150 -95 -197 7
-34 23 -44 80 -49 23 -1 91 29 101 45 13 21 21 9 17 -25 -3 -28 -1 -35 13 -35
32 0 54 21 66 60 12 39 29 45 29 11 0 -27 38 -71 61 -71 25 0 32 20 19 54
l-10 27 33 -24 c85 -63 177 -53 179 21 2 56 -28 110 -103 189 -23 24 -40 45
-38 47 2 1 33 10 69 20 80 21 240 97 299 142 24 19 79 68 123 110 l80 76 -6
43 c-8 52 -66 174 -131 274 -82 127 -100 193 -100 366 l0 110 87 191 c96 212
132 316 131 384 0 87 -76 195 -170 241 -42 21 -62 24 -165 24 l-116 0 -103
-53 c-127 -67 -167 -70 -262 -21 -34 18 -80 41 -102 53 -31 16 -64 21 -150 24
-107 3 -112 3 -172 -28z m384 -116 c144 -87 168 -87 298 -2 77 50 130 69 173
62 80 -13 140 -28 162 -39 34 -18 97 -80 115 -114 13 -27 13 -29 -10 -39 -32
-15 -162 -48 -262 -67 -214 -41 -468 -39 -682 5 -110 23 -232 58 -245 71 -12
11 35 81 77 113 44 34 93 54 153 62 27 3 50 7 52 9 2 1 19 1 39 -1 22 -2 74
-26 130 -60z m728 -271 c-20 -55 -94 -242 -110 -278 -54 -124 -87 -225 -86
-265 1 -85 32 -225 68 -310 19 -47 58 -141 85 -209 l50 -123 -30 -37 c-44 -55
-119 -108 -207 -145 -44 -18 -81 -33 -82 -31 -6 4 -56 237 -68 315 -12 79 -13
308 -1 385 5 33 14 109 22 195 3 30 7 66 9 80 3 14 7 48 11 75 7 63 62 287 73
298 5 5 60 21 122 36 63 15 123 32 134 39 11 6 21 12 22 12 1 0 -4 -17 -12
-37z m-1005 -15 c63 -17 118 -35 122 -41 12 -20 66 -258 73 -322 4 -33 8 -71
10 -85 2 -14 6 -54 10 -90 4 -36 9 -78 11 -95 30 -248 25 -356 -27 -597 -25
-114 -36 -148 -47 -148 -9 0 -57 20 -107 44 -93 46 -181 120 -191 161 -3 13 9
56 29 106 20 46 58 139 86 207 49 117 81 252 81 337 0 17 -41 134 -91 260
-130 328 -124 309 -96 300 12 -4 74 -21 137 -37z m470 -75 c-8 -3 -22 -9 -30
-13 -9 -5 -26 -2 -40 6 -24 13 -22 13 30 13 30 0 48 -3 40 -6z m-100 -65 c0
-9 -60 -51 -65 -46 -7 7 -23 87 -18 92 7 6 83 -36 83 -46z m195 5 c-4 -27 -8
-49 -10 -51 -3 -3 -75 38 -75 43 0 4 82 55 89 55 2 0 0 -21 -4 -47z m-104 -70
c36 -22 36 -29 -1 -48 -26 -14 -32 -14 -65 2 l-37 18 29 22 c34 27 37 28 74 6z
m77 -103 c-2 -31 -12 -36 -37 -21 -12 8 -11 13 10 30 31 26 30 26 27 -9z
m-186 6 c13 -10 15 -15 6 -24 -20 -20 -38 -13 -38 13 0 28 7 30 32 11z m109
-81 c33 -18 31 -28 -11 -50 -26 -13 -30 -13 -54 6 -32 25 -32 31 -3 45 31 16
34 16 68 -1z m-101 -97 c0 -5 -4 -8 -10 -8 -5 0 -10 10 -10 23 0 18 2 19 10 7
5 -8 10 -18 10 -22z m156 7 c-3 -9 -11 -13 -16 -10 -8 5 -7 11 1 21 14 18 24
11 15 -11z m-46 -61 c13 -14 11 -19 -9 -35 -29 -24 -32 -24 -66 2 l-27 22 29
22 c29 24 47 22 73 -11z m-100 -105 c0 -6 -4 -7 -10 -4 -5 3 -10 11 -10 16 0
6 5 7 10 4 6 -3 10 -11 10 -16z m130 5 c0 -8 -5 -12 -10 -9 -6 4 -8 11 -5 16
9 14 15 11 15 -7z m-35 -74 c11 -17 -32 -31 -59 -19 l-25 12 22 17 c22 18 47
14 62 -10z m-16 -123 c13 -16 5 -27 -20 -27 -24 0 -35 20 -18 31 19 12 25 11
38 -4z m11 -138 c0 -4 -7 -12 -16 -19 -12 -11 -18 -10 -31 3 -13 13 -14 19 -4
31 10 12 16 13 32 3 10 -6 19 -15 19 -18z m-16 -120 c-7 -11 -34 -12 -34 -1 0
14 11 21 26 15 8 -3 11 -9 8 -14z m-2 -101 c-12 -12 -35 -1 -27 12 3 5 13 6
21 3 10 -4 12 -9 6 -15z m-7 -88 c3 -5 -1 -10 -10 -10 -9 0 -13 5 -10 10 3 6
8 10 10 10 2 0 7 -4 10 -10z m8 -97 c-7 -2 -19 -2 -25 0 -7 3 -2 5 12 5 14 0
19 -2 13 -5z m-130 -307 c-10 -13 -31 -32 -46 -41 -27 -16 -28 -16 -17 2 10
16 68 63 78 63 2 0 -5 -11 -15 -24z m262 -7 c34 -30 48 -58 21 -42 -16 9 -70
73 -62 73 3 0 21 -14 41 -31z"/>
</g>
</svg>
